<svg width="1058" height="785" viewBox="0 0 1058 785" fill="none" xmlns="http://www.w3.org/2000/svg">
<g id="undraw_Ride_a_bicycle_2yok 1" clip-path="url(#clip0)">
<g id="background">
<path id="Vector" d="M209.73 115.43C204.25 122.08 202.14 131.43 199.78 140.22C180.78 211.06 133.96 268.04 80.64 308.74C58.06 325.98 30.57 349.1 35.51 380.01C38.17 396.61 49.84 408.83 58.51 422.35C76.7 450.66 82.6 489.14 73.93 523.03C64.07 561.59 36.51 597.57 45.04 636.56C50.3 660.56 68.16 677.64 85.33 692.32C112.117 715.207 139.757 736.647 168.25 756.64C187.35 770.04 207.67 783.08 229.93 784.78C249.53 786.28 268.73 778.83 287.34 771.48C303.6 765.05 320.27 758.36 333.4 745.48C341.97 737.07 348.8 726.22 358.32 719.34C380.68 703.18 409.4 713.42 435.04 720.34C495.54 736.58 560.29 730.65 617.86 703.6C706.17 662.1 773.48 574.95 859.86 528.19C897 508.08 937.4 495.6 971.79 469.7C991.165 454.953 1007.81 436.936 1020.99 416.46C1046.99 376.35 1061.05 325.21 1056.99 275.15C1052.93 225.09 1030.18 176.85 994.45 148.59C956.2 118.34 907.89 112.69 864.37 94.53C819.43 75.77 779.45 43.53 734.94 23.4C698.924 7.15665 659.728 -0.81716 620.228 0.0636141C580.728 0.944389 541.926 10.6574 506.67 28.49C458.23 52.99 409.13 110.15 355.18 114.49C316.74 117.49 239.75 79.01 209.73 115.43Z" fill="url(#paint0_linear)"/>
<g id="right flower">
<path id="Vector_2" d="M842.1 448.32C842.1 448.32 859.6 482.67 845.34 501.46C831.08 520.25 846.64 571.46 846.64 571.46" stroke="#6C63FF" stroke-miterlimit="10"/>
<path id="Vector_3" d="M847.28 437.63C847.28 444.25 842.42 449.63 842.42 449.63C842.42 449.63 837.56 444.26 837.56 437.63C837.56 431 842.42 425.63 842.42 425.63C842.42 425.63 847.28 431.01 847.28 437.63Z" fill="#6C63FF"/>
<path id="Vector_4" d="M851.17 448.32C851.17 448.32 833.67 482.67 847.93 501.46C862.19 520.25 846.63 571.46 846.63 571.46" stroke="#6C63FF" stroke-miterlimit="10"/>
<path id="Vector_5" d="M845.99 437.63C845.99 444.25 850.85 449.63 850.85 449.63C850.85 449.63 855.71 444.26 855.71 437.63C855.71 431 850.85 425.63 850.85 425.63C850.85 425.63 845.99 431.01 845.99 437.63Z" fill="#6C63FF"/>
<path id="Vector_6" opacity="0.1" d="M845.99 437.63C845.99 444.25 850.85 449.63 850.85 449.63C850.85 449.63 855.71 444.26 855.71 437.63C855.71 431 850.85 425.63 850.85 425.63C850.85 425.63 845.99 431.01 845.99 437.63Z" fill="black"/>
<path id="Vector_7" d="M858.3 448.32C858.3 448.32 875.8 482.67 861.54 501.46C847.28 520.25 862.84 571.46 862.84 571.46" stroke="#6C63FF" stroke-miterlimit="10"/>
<path id="Vector_8" d="M863.48 437.63C863.48 444.25 858.62 449.63 858.62 449.63C858.62 449.63 853.76 444.26 853.76 437.63C853.76 431 858.62 425.63 858.62 425.63C858.62 425.63 863.48 431.01 863.48 437.63Z" fill="#6C63FF"/>
<path id="Vector_9" d="M860.76 465.15C856.17 469.92 848.94 470.42 848.94 470.42C848.94 470.42 849.16 463.18 853.75 458.42C858.34 453.66 865.57 453.15 865.57 453.15C865.57 453.15 865.35 460.38 860.76 465.15Z" fill="#6C63FF"/>
<path id="Vector_10" d="M861.22 488.85C856.63 493.62 849.4 494.12 849.4 494.12C849.4 494.12 849.62 486.88 854.21 482.12C858.8 477.36 866.03 476.85 866.03 476.85C866.03 476.85 865.85 484.07 861.22 488.85Z" fill="#6C63FF"/>
<path id="Vector_11" d="M836.32 501.88C840.66 506.88 840.51 514.12 840.51 514.12C840.51 514.12 833.32 513.25 828.98 508.25C824.64 503.25 824.79 496.01 824.79 496.01C824.79 496.01 831.98 496.88 836.32 501.88Z" fill="#6C63FF"/>
<path id="Vector_12" d="M840.35 451.35C845.87 455.01 847.66 462.03 847.66 462.03C847.66 462.03 840.5 463.12 834.98 459.46C829.46 455.8 827.67 448.78 827.67 448.78C827.67 448.78 834.85 447.69 840.35 451.35Z" fill="#6C63FF"/>
<path id="Vector_13" opacity="0.1" d="M840.35 451.35C845.87 455.01 847.66 462.03 847.66 462.03C847.66 462.03 840.5 463.12 834.98 459.46C829.46 455.8 827.67 448.78 827.67 448.78C827.67 448.78 834.85 447.69 840.35 451.35Z" fill="black"/>
<path id="Vector_14" d="M867.37 448.32C867.37 448.32 849.85 482.67 864.13 501.49C878.41 520.31 862.83 571.49 862.83 571.49" stroke="#6C63FF" stroke-miterlimit="10"/>
<path id="Vector_15" d="M862.19 437.63C862.19 444.25 867.05 449.63 867.05 449.63C867.05 449.63 871.91 444.26 871.91 437.63C871.91 431 867.05 425.63 867.05 425.63C867.05 425.63 862.19 431.01 862.19 437.63Z" fill="#6C63FF"/>
<path id="Vector_16" opacity="0.1" d="M862.19 437.63C862.19 444.25 867.05 449.63 867.05 449.63C867.05 449.63 871.91 444.26 871.91 437.63C871.91 431 867.05 425.63 867.05 425.63C867.05 425.63 862.19 431.01 862.19 437.63Z" fill="black"/>
<path id="Vector_17" d="M863.59 465.66C858.94 470.38 858.59 477.66 858.59 477.66C858.59 477.66 865.82 477.25 870.47 472.53C875.12 467.81 875.47 460.53 875.47 460.53C875.47 460.53 868.23 460.94 863.59 465.66Z" fill="#6C63FF"/>
<path id="Vector_18" opacity="0.1" d="M863.59 465.66C858.94 470.38 858.59 477.66 858.59 477.66C858.59 477.66 865.82 477.25 870.47 472.53C875.12 467.81 875.47 460.53 875.47 460.53C875.47 460.53 868.23 460.94 863.59 465.66Z" fill="black"/>
<path id="Vector_19" d="M872.7 498.49C868.05 503.21 867.7 510.49 867.7 510.49C867.7 510.49 874.93 510.08 879.58 505.36C884.23 500.64 884.58 493.36 884.58 493.36C884.58 493.36 877.35 493.75 872.7 498.49Z" fill="#6C63FF"/>
<path id="Vector_20" d="M859.29 491.26C859.29 491.26 869.82 474.66 884.61 474.26" stroke="#6C63FF" stroke-miterlimit="10"/>
<path id="Vector_21" d="M851.09 481.23C851.09 481.23 840.56 464.63 825.77 464.23" stroke="#6C63FF" stroke-miterlimit="10"/>
<path id="Vector_22" d="M849.72 504.93C849.72 504.93 860.25 488.33 875.04 487.93" stroke="#6C63FF" stroke-miterlimit="10"/>
<path id="Vector_23" d="M884.13 476.9C885.638 476.9 886.86 475.678 886.86 474.17C886.86 472.662 885.638 471.44 884.13 471.44C882.622 471.44 881.4 472.662 881.4 474.17C881.4 475.678 882.622 476.9 884.13 476.9Z" fill="#6C63FF"/>
<path id="Vector_24" d="M826.03 467.1C827.538 467.1 828.76 465.878 828.76 464.37C828.76 462.862 827.538 461.64 826.03 461.64C824.522 461.64 823.3 462.862 823.3 464.37C823.3 465.878 824.522 467.1 826.03 467.1Z" fill="#6C63FF"/>
<path id="Vector_25" d="M857.47 510.4C857.47 510.4 846.94 493.8 832.15 493.4" stroke="#6C63FF" stroke-miterlimit="10"/>
<path id="Vector_26" d="M832.41 496.27C833.918 496.27 835.14 495.048 835.14 493.54C835.14 492.032 833.918 490.81 832.41 490.81C830.902 490.81 829.68 492.032 829.68 493.54C829.68 495.048 830.902 496.27 832.41 496.27Z" fill="#6C63FF"/>
<path id="Vector_27" d="M875.24 490.8C876.748 490.8 877.97 489.578 877.97 488.07C877.97 486.562 876.748 485.34 875.24 485.34C873.732 485.34 872.51 486.562 872.51 488.07C872.51 489.578 873.732 490.8 875.24 490.8Z" fill="#6C63FF"/>
<path id="Vector_28" d="M915.69 551.49C915.69 551.49 890.31 546.41 883.54 539.64C876.77 532.87 846.31 521.06 842.93 529.49C839.55 537.92 797.24 566.72 826.01 571.8C854.78 576.88 893.7 578.57 902.16 575.18C910.62 571.79 915.69 551.49 915.69 551.49Z" fill="#A8A8A8"/>
<path id="Vector_29" opacity="0.2" d="M826 568.68C854.77 573.76 893.69 575.45 902.15 572.06C908.59 569.48 913.07 557.06 914.84 551.34L915.69 551.52C915.69 551.52 910.61 571.83 902.15 575.21C893.69 578.59 854.77 576.9 826 571.83C817.7 570.36 815.32 566.92 816.22 562.57C816.93 565.4 819.85 567.59 826 568.68Z" fill="black"/>
</g>
<g id="left flower">
<path id="Vector_30" d="M67.25 588.15C67.25 588.15 75.63 599.15 63.38 615.65C51.13 632.15 41.03 646.16 45.12 656.49C45.12 656.49 63.6 625.76 78.64 625.33C93.68 624.9 83.79 606.63 67.25 588.15Z" fill="#6C63FF"/>
<path id="Vector_31" opacity="0.1" d="M67.25 588.15C67.9802 589.21 68.556 590.368 68.96 591.59C83.64 608.83 91.45 624.92 77.35 625.33C64.21 625.71 48.45 649.2 44.67 655.14C44.7947 655.598 44.9449 656.049 45.12 656.49C45.12 656.49 63.6 625.76 78.64 625.33C93.68 624.9 83.79 606.63 67.25 588.15Z" fill="black"/>
<path id="Vector_32" d="M82.85 602.11C82.85 605.97 82.42 609.11 81.85 609.11C81.28 609.11 80.85 605.98 80.85 602.11C80.85 598.24 81.39 600.11 81.92 600.11C82.45 600.11 82.85 598.26 82.85 602.11Z" fill="#FFD037"/>
<path id="Vector_33" d="M88.17 606.72C84.78 608.57 81.83 609.72 81.58 609.21C81.33 608.7 83.86 606.86 87.25 605.02C90.64 603.18 89.3 604.52 89.56 605.02C89.82 605.52 91.56 604.87 88.17 606.72Z" fill="#FFD037"/>
<path id="Vector_34" d="M22.98 588.15C22.98 588.15 14.6 599.15 26.85 615.65C39.1 632.15 49.2 646.16 45.11 656.48C45.11 656.48 26.63 625.75 11.59 625.32C-3.45002 624.89 6.43998 606.63 22.98 588.15Z" fill="#6C63FF"/>
<path id="Vector_35" opacity="0.1" d="M22.98 588.15C22.2497 589.21 21.674 590.368 21.27 591.59C6.59999 608.83 -1.22001 624.92 12.85 625.32C25.99 625.7 41.75 649.19 45.53 655.13C45.4053 655.588 45.255 656.039 45.08 656.48C45.08 656.48 26.6 625.75 11.56 625.32C-3.48001 624.89 6.43999 606.63 22.98 588.15Z" fill="black"/>
<path id="Vector_36" d="M7.40997 602.11C7.40997 605.97 7.83997 609.11 8.40997 609.11C8.97997 609.11 9.40997 605.98 9.40997 602.11C9.40997 598.24 8.86997 600.11 8.33997 600.11C7.80997 600.11 7.40997 598.26 7.40997 602.11Z" fill="#FFD037"/>
<path id="Vector_37" d="M2.05997 606.72C5.44997 608.57 8.39998 609.72 8.64998 609.21C8.89998 608.7 6.36997 606.86 2.97997 605.02C-0.410027 603.18 0.929975 604.52 0.669975 605.02C0.409975 605.52 -1.33003 604.87 2.05997 606.72Z" fill="#FFD037"/>
<path id="Vector_38" d="M10.07 655.04C10.07 655.04 33.5 654.32 40.56 649.29C47.62 644.26 76.56 638.29 78.35 646.29C80.14 654.29 113.56 686.4 87.11 686.61C60.66 686.82 25.65 682.49 18.61 678.23C11.57 673.97 10.07 655.04 10.07 655.04Z" fill="#A8A8A8"/>
<path id="Vector_39" opacity="0.2" d="M87.59 683.84C61.14 684.05 26.13 679.72 19.08 675.43C13.71 672.16 11.57 660.43 10.86 655.02H10.08C10.08 655.02 11.56 673.92 18.61 678.21C25.66 682.5 60.67 686.84 87.12 686.62C94.76 686.56 97.39 683.84 97.25 679.82C96.19 682.28 93.27 683.79 87.59 683.84Z" fill="black"/>
</g>
</g>
<g id="back wheel">
<path id="Vector_40" d="M256.725 715.778L250.455 617.838L250.325 617.628L244.005 619.828L214.925 704.678L168.675 671.888L242.345 618.478L242.415 618.268L242.835 618.118L247.585 614.668L170.345 571.358L151.425 592.158L154.425 611.658L243.245 613.278V615.278L152.765 613.658L149.345 591.518L175.245 563.058L213.995 517.858L214.685 519.728L222.885 510.728L253.345 516.188V514.978L255.345 515.038V516.548L300.705 524.668L258.415 609.278L252.245 613.748V614.248V614.808L350.045 580.728L338.435 671.938L255.435 619.068L252.515 617.428L301.455 696.308L256.725 715.778ZM252.725 621.438L258.575 712.818L298.625 695.438L252.725 621.438ZM172.145 671.868L213.935 701.498L241.275 621.758L172.145 671.868ZM254.465 616.208L256.555 617.378L336.905 668.578L347.705 583.708L254.465 616.208ZM247.365 609.008L249.875 613.058L250.315 612.738L253.315 518.208L223.575 512.888L215.415 521.888L247.365 609.008ZM171.945 569.948L246.785 611.948L245.485 609.818L213.905 523.548L176.715 564.418L171.945 569.948ZM255.345 518.558L252.345 611.278L256.865 607.998L297.775 526.178L255.345 518.558Z" fill="#535461"/>
<path id="Vector_41" d="M366.415 588.738C362.405 570.919 354.285 554.283 342.705 540.158C338.406 534.909 333.666 530.038 328.535 525.598C308.809 508.567 283.986 498.568 257.962 497.17C231.938 495.771 206.187 503.053 184.749 517.873C163.311 532.693 147.401 554.211 139.515 579.05C131.629 603.89 132.214 630.645 141.178 655.116C150.142 679.587 166.978 700.39 189.042 714.258C211.107 728.127 237.152 734.277 263.09 731.743C289.028 729.208 313.39 718.134 332.353 700.257C351.317 682.379 363.807 658.712 367.865 632.968C368.809 626.907 369.284 620.783 369.285 614.648C369.292 605.932 368.329 597.242 366.415 588.738ZM251.225 703.088C232.993 703.069 215.209 697.435 200.292 686.953C185.374 676.47 174.047 661.648 167.851 644.501C161.655 627.354 160.89 608.715 165.66 591.118C170.43 573.521 180.505 557.82 194.513 546.15C208.521 534.48 225.783 527.408 243.953 525.895C262.122 524.381 280.316 528.501 296.062 537.693C311.807 546.884 324.34 560.703 331.956 577.268C339.571 593.834 341.9 612.343 338.625 630.278C334.875 650.722 324.076 669.203 308.107 682.506C292.137 695.809 272.01 703.093 251.225 703.088V703.088Z" fill="#535461"/>
<path id="Vector_42" d="M251.225 627.058C258.3 627.058 264.035 621.323 264.035 614.248C264.035 607.174 258.3 601.438 251.225 601.438C244.15 601.438 238.415 607.174 238.415 614.248C238.415 621.323 244.15 627.058 251.225 627.058Z" fill="#535461"/>
</g>
<g id="front wheel">
<path id="Vector_43" d="M680.847 714.78L674.587 616.88L674.457 616.67L668.137 618.87L639.047 703.68L592.797 670.88L666.487 617.47L666.557 617.26L666.977 617.11L671.727 613.66L594.487 570.35L575.557 591.15L578.557 610.65L667.357 612.23V614.23L576.877 612.61L573.477 590.5L599.367 562.05L638.087 516.88L638.777 518.75L646.977 509.75L677.517 515.22V514.01L679.517 514.07V515.58L724.877 523.7L682.547 608.35L676.377 612.82V613.32V613.88L774.187 579.8L762.577 671.01L679.577 618.14L676.657 616.5L725.597 695.39L680.847 714.78ZM676.847 620.44L682.697 711.82L722.747 694.44L676.847 620.44ZM596.277 670.88L638.067 700.51L665.407 620.77L596.277 670.88ZM678.597 615.22L680.687 616.39L761.037 667.59L771.837 582.72L678.597 615.22ZM671.497 608.02L674.007 612.07L674.447 611.75L677.447 517.22L647.707 511.88L639.547 520.88L671.497 608.02ZM596.107 568.97L670.947 610.97L669.647 608.84L638.067 522.57L600.867 563.45L596.107 568.97ZM679.477 517.58L676.477 610.27L680.997 606.99L721.907 525.17L679.477 517.58Z" fill="#535461"/>
<path id="Vector_44" d="M675.757 496C665.144 495.988 654.578 497.415 644.347 500.24C639.071 501.695 633.904 503.523 628.887 505.71C602.157 517.297 580.674 538.387 568.594 564.898C556.514 591.41 554.697 621.459 563.492 649.233C572.287 677.008 591.071 700.533 616.209 715.259C641.348 729.984 671.054 734.863 699.582 728.952C728.109 723.04 753.431 706.759 770.648 683.257C787.865 659.755 795.754 630.702 792.789 601.72C789.823 572.738 776.215 545.885 754.595 526.356C732.975 506.828 704.881 496.012 675.747 496H675.757ZM675.357 702.09C655.076 702.082 635.408 695.137 619.62 682.407C603.831 669.678 592.872 651.931 588.562 632.113C584.252 612.295 586.851 591.599 595.928 573.463C605.004 555.326 620.011 540.84 638.457 532.41C643.149 530.262 648.021 528.532 653.017 527.24C665.229 524.07 677.977 523.537 690.411 525.678C702.845 527.818 714.681 532.581 725.13 539.652C735.58 546.722 744.404 555.937 751.015 566.683C757.627 577.429 761.873 589.46 763.473 601.975C765.073 614.49 763.989 627.202 760.293 639.265C756.598 651.329 750.375 662.467 742.04 671.939C733.704 681.41 723.447 688.998 711.951 694.196C700.455 699.395 687.984 702.086 675.367 702.09H675.357Z" fill="#535461"/>
<path id="Vector_45" d="M675.357 626.06C682.432 626.06 688.167 620.325 688.167 613.25C688.167 606.175 682.432 600.44 675.357 600.44C668.282 600.44 662.547 606.175 662.547 613.25C662.547 620.325 668.282 626.06 675.357 626.06Z" fill="#535461"/>
</g>
<path id="Vector_46" opacity="0.1" d="M448.22 628.27C462.364 628.27 473.83 616.804 473.83 602.66C473.83 588.516 462.364 577.05 448.22 577.05C434.076 577.05 422.61 588.516 422.61 602.66C422.61 616.804 434.076 628.27 448.22 628.27Z" fill="black"/>
<g id="person bike">
<path id="Vector_47" d="M387 554.303L344.293 512.159L330.947 525.683L373.654 567.827L387 554.303Z" fill="#6C63FF"/>
<path id="Vector_48" opacity="0.1" d="M387 554.303L344.293 512.159L330.947 525.683L373.654 567.827L387 554.303Z" fill="#535461"/>
<path id="Vector_49" d="M354.48 491.99C354.48 491.99 379.27 478.91 388.85 470.49C394.617 465.444 400.818 460.917 407.38 456.96L438.48 438.03L503.48 433.03L506.48 444.03C506.48 444.03 511.48 460.03 461.48 474.03C411.48 488.03 386.48 510.03 386.48 510.03C386.48 510.03 354.48 520.99 354.48 491.99Z" fill="#DB8B8B"/>
<path id="Vector_50" opacity="0.1" d="M389.13 507.86C387.36 509.21 386.48 509.99 386.48 509.99C386.48 509.99 354.48 520.99 354.48 491.99C354.48 491.99 356.03 491.17 358.48 489.8C360.955 493.831 364.423 497.16 368.551 499.469C372.679 501.778 377.33 502.99 382.06 502.99H385.45L389.13 507.86Z" fill="black"/>
<path id="Vector_51" opacity="0.05" d="M505.54 449.55C502.76 455.44 493.17 465.12 461.48 473.99C420.87 485.36 396.75 501.99 389.13 507.86C387.36 509.21 386.48 509.99 386.48 509.99C386.48 509.99 354.48 520.99 354.48 491.99C354.48 491.99 356.03 491.17 358.48 489.8C365.91 485.73 381.64 476.8 388.82 470.45C394.586 465.403 400.787 460.875 407.35 456.92L438.45 437.99L450.03 437.1L503.45 432.99L506.45 443.99C506.45 443.99 507.15 446.14 505.54 449.55Z" fill="black"/>
<path id="Vector_52" d="M354.98 485.49L328.48 502.99L406.08 567.99C406.08 567.99 417.48 560.99 411.48 552.99C411.48 552.99 391.48 535.99 390.48 511.99L384.48 503.99H381.09C375.358 503.991 369.767 502.211 365.089 498.897C360.412 495.583 356.88 490.898 354.98 485.49V485.49Z" fill="#ABB1D1"/>
<path id="Vector_53" opacity="0.1" d="M505.54 449.55C489.54 441.82 450.48 440.99 450.48 440.99L450.06 437.1L503.48 432.99L506.48 443.99C506.48 443.99 507.15 446.14 505.54 449.55Z" fill="black"/>
<path id="Vector_54" d="M450.48 438.99C450.48 438.99 497.48 439.99 509.48 449.99L503.48 328.99H438.48L450.48 438.99Z" fill="#ABB1D1"/>
<path id="Vector_55" opacity="0.05" d="M449.662 438C449.662 438 495.338 439 507 449L501.169 328H438L449.662 438Z" fill="black"/>
<path id="Vector_56" d="M488.24 364.95C488.24 364.95 605.89 360.95 608.29 376.16C610.69 391.37 490.64 384.96 490.64 384.96C490.64 384.96 481.04 375.35 488.24 364.95Z" fill="#535461"/>
<path id="Vector_57" opacity="0.05" d="M488.24 364.95C488.24 364.95 605.89 360.95 608.29 376.16C610.69 391.37 490.64 384.96 490.64 384.96C490.64 384.96 481.04 375.35 488.24 364.95Z" fill="black"/>
<path id="Vector_58" d="M393 425.78H372.19V606.66H393V425.78Z" fill="#E7D8C6"/>
<path id="Vector_59" opacity="0.1" d="M393 425.77V439.7C386.08 440.6 379 441.17 372.19 441.39V425.77H393Z" fill="black"/>
<path id="Vector_60" d="M391.44 410.78C388.52 410.554 385.616 410.164 382.74 409.61C371.46 407.45 343.02 402.92 335.37 410.61C325.77 420.21 328.97 437.02 354.58 439.42C380.19 441.82 424.21 435.42 433.02 425.81C433.02 425.77 417.09 412.75 391.44 410.78Z" fill="#535461"/>
<path id="Vector_61" d="M387.4 475.4L605.9 407.37L613.1 424.18L389 501.01L387.4 475.4Z" fill="#E7D8C6"/>
<path id="Vector_62" d="M452.23 582.65L609.9 427.38L618.7 440.18L468.23 597.05L452.23 582.65Z" fill="#E7D8C6"/>
<path id="Vector_63" opacity="0.1" d="M653.58 529.85C648.584 531.142 643.712 532.872 639.02 535.02L629.46 508.31C634.477 506.123 639.644 504.295 644.92 502.84L653.58 529.85Z" fill="black"/>
<path id="Vector_64" d="M680.33 608.26L669.13 614.66L590.99 396.33L587.49 386.56L605.9 376.15L610.51 390.53L680.33 608.26Z" fill="#E7D8C6"/>
<path id="Vector_65" opacity="0.1" d="M610.51 390.53L590.99 396.33L587.49 386.56L605.9 376.15L610.51 390.53Z" fill="black"/>
<path id="Vector_66" d="M491.44 407.37L601.09 369.75C601.09 369.75 620.3 372.15 613.09 388.16L502.65 420.97C502.65 420.97 485.85 422.57 491.44 407.37Z" fill="#535461"/>
<path id="Vector_67" opacity="0.1" d="M367.79 615.86C367.789 621.994 367.314 628.119 366.37 634.18C356.77 633.49 346.85 632.49 337.13 631.49C339.289 619.599 339.021 607.394 336.34 595.61C345.81 593.61 355.48 591.7 364.92 589.97C366.833 598.467 367.795 607.15 367.79 615.86V615.86Z" fill="black"/>
<path id="Vector_68" opacity="0.1" d="M393 585.38V606.65H372.19V588.65C379.39 587.4 386.39 586.29 393 585.38Z" fill="black"/>
<path id="Vector_69" d="M258.54 615.49C258.54 615.49 426.62 571.49 440.22 588.28C453.82 605.07 468.23 627.49 425.85 635.49C383.47 643.49 255.37 621.88 255.37 621.88L258.54 615.49Z" fill="#E7D8C6"/>
<path id="Vector_70" opacity="0.1" d="M341.21 541.37L319.85 560.92C316.067 556.064 311.791 551.614 307.09 547.64L327.03 526.81C332.164 531.249 336.908 536.12 341.21 541.37V541.37Z" fill="black"/>
<path id="Vector_71" d="M252.94 606.66L378.59 475.4L382.6 505.81L259.34 618.66L252.94 606.66Z" fill="#E7D8C6"/>
<path id="Vector_72" opacity="0.1" d="M251.34 628.27C258.415 628.27 264.15 622.535 264.15 615.46C264.15 608.385 258.415 602.65 251.34 602.65C244.265 602.65 238.53 608.385 238.53 615.46C238.53 622.535 244.265 628.27 251.34 628.27Z" fill="black"/>
<path id="Vector_73" opacity="0.1" d="M675.13 627.07C682.205 627.07 687.94 621.335 687.94 614.26C687.94 607.185 682.205 601.45 675.13 601.45C668.055 601.45 662.32 607.185 662.32 614.26C662.32 621.335 668.055 627.07 675.13 627.07Z" fill="black"/>
<path id="Vector_74" d="M449.83 628.27C463.974 628.27 475.44 616.804 475.44 602.66C475.44 588.516 463.974 577.05 449.83 577.05C435.686 577.05 424.22 588.516 424.22 602.66C424.22 616.804 435.686 628.27 449.83 628.27Z" fill="#535461"/>
<path id="Vector_75" d="M442.992 600.736L442.984 600.742C439.977 602.991 439.362 607.253 441.611 610.26L461.937 637.441C464.186 640.448 468.448 641.063 471.455 638.814L471.463 638.808C474.471 636.559 475.085 632.297 472.836 629.29L452.51 602.109C450.261 599.102 446 598.487 442.992 600.736Z" fill="#6C63FF"/>
<path id="Vector_76" d="M565.48 246.99L563.1 277.1C562.826 280.914 562.876 284.744 563.25 288.55C563.56 291.92 563.25 297.82 559.95 306.82C555.713 318.317 553.523 330.467 553.48 342.72V376.99L530.48 372.99C530.48 372.99 531.48 324.99 527.48 316.99C523.48 308.99 530.48 237.99 530.48 237.99L565.48 246.99Z" fill="#DB8B8B"/>
<path id="Vector_77" opacity="0.05" d="M564.3 261.91L563.1 277.1C562.83 280.911 562.883 284.738 563.26 288.54C563.57 291.91 563.26 297.81 559.96 306.82C555.723 318.317 553.533 330.467 553.49 342.72V376.99L530.49 372.99C530.49 372.99 531.49 324.99 527.49 316.99C524.66 311.32 527.34 274.05 529.15 252.78C529.9 244.03 530.49 237.99 530.49 237.99L565.49 246.99L564.3 261.91Z" fill="black"/>
<path id="Vector_78" d="M451.5 476.99L442.85 526.19C441.759 532.759 440.086 539.218 437.85 545.49C432.78 559.35 436.02 578.78 438.48 589.38C439.57 594.06 440.48 597.02 440.48 597.02L414.48 611.02L406.48 605.02V601.02L405.48 512.02C399.48 498.02 401.48 477.02 405.48 469.02C406.617 466.392 407.417 463.63 407.86 460.8C409.86 450.08 410.48 435.02 410.48 435.02C410.48 435.02 426.48 408.02 445.48 426.02C452.48 432.65 455.14 441.32 455.7 449.62C456.68 463.83 451.5 476.99 451.5 476.99Z" fill="#DB8B8B"/>
<path id="Vector_79" opacity="0.1" d="M455.7 449.59C441.83 457.83 417.7 460.16 407.86 460.77C409.86 450.05 410.48 434.99 410.48 434.99C410.48 434.99 426.48 407.99 445.48 425.99C452.48 432.62 455.14 441.29 455.7 449.59Z" fill="black"/>
<path id="Vector_80" d="M472 427C461.366 432.663 468.797 437.352 459.48 444.99C443.48 457.99 403.48 458.99 403.48 458.99V443.99C404.48 425.99 398 402.99 375 346.99C360.31 311.23 359.62 299 364.48 289C367.24 283.35 364.48 275.99 364.48 275.99L489.48 299.99L493.95 313.39L503.48 341.99C503.48 341.99 451.5 338.99 445.5 341.99C439.5 344.99 460.48 376.99 460.48 376.99C454.48 404.99 472 427 472 427Z" fill="#ABB1D1"/>
<path id="Vector_81" opacity="0.1" d="M565.48 246.99L564.3 261.91C546.9 266.91 534.48 250.99 534.48 250.99C532.665 251.477 530.882 252.074 529.14 252.78C529.89 244.03 530.48 237.99 530.48 237.99L565.48 246.99Z" fill="black"/>
<path id="Vector_82" opacity="0.1" d="M493.95 313.39C493.48 318.06 493.48 320.99 493.48 320.99C493.48 320.99 470.48 339.99 431.48 310.99C392.48 281.99 357.48 289.99 357.48 289.99C357.48 289.99 357.89 287.67 358.72 283.99C361.48 278.34 364.48 275.99 364.48 275.99L489.48 299.99L493.95 313.39Z" fill="black"/>
<path id="Vector_83" d="M517.468 71.1518C517.468 71.1518 469.504 57.6409 455.318 123.169C441.132 188.696 451.94 221.798 451.94 221.798L559.014 209.3C559.014 209.3 589.413 91.0803 517.468 71.1518Z" fill="#2F2E41"/>
<path id="Vector_84" d="M578.96 207.94C576.35 228.29 575.48 253.94 575.48 253.94C552.48 271.94 534.48 248.94 534.48 248.94C512.76 254.77 502.55 273.78 497.74 290.37C495.164 299.344 493.732 308.607 493.48 317.94C493.48 317.94 487.4 322.94 476.2 323.94C465.61 324.83 450.43 322.07 431.48 307.94C392.48 278.94 357.48 286.94 357.48 286.94C357.48 286.94 379 254 395 242C426.52 234.06 431.48 207.94 441 161.94C461 115.94 542 155 542 155C542 155 491.48 117.94 528.48 126.94C537.492 129.302 540.984 138.871 548 145C567.79 161.64 582.24 182.3 578.96 207.94Z" fill="white"/>
<path id="Vector_85" d="M536.51 145.95C536.46 147.28 534.68 158.35 534.5 160C533.791 166.5 528 170.5 519.5 177.5C505 173 501.42 169 498 160C496.762 156.74 489.128 149.382 488.51 145.95L536.51 137.95C536.51 137.95 536.92 132.8 536.51 145.95Z" fill="#DB8B8B"/>
<path id="Vector_86" opacity="0.05" d="M497.74 290.42C495.164 299.394 493.732 308.657 493.48 317.99C493.48 317.99 487.4 322.99 476.2 323.99C475.884 323.353 475.643 322.682 475.48 321.99C473.48 312.99 458.48 296.99 458.48 296.99C448.48 287.99 446.48 271.99 446.48 271.99L429.98 223.49L424.48 218.99C424.48 218.99 447.48 200.99 467.48 215.99C487.48 230.99 481.48 262.99 481.48 262.99L485.48 273.99C489.63 277.49 493.85 283.66 497.74 290.42Z" fill="black"/>
<path id="Vector_87" d="M427.48 217.99L449.48 270.99C449.48 270.99 451.48 286.99 461.48 295.99C461.48 295.99 476.48 311.99 478.48 320.99C480.48 329.99 508.48 353.99 508.48 353.99C508.48 353.99 534.48 377.99 536.48 386.99C536.48 386.99 560.48 393.99 557.48 407.99C557.48 407.99 575.48 389.99 557.48 372.99C539.48 355.99 515.48 320.99 515.48 320.99C515.48 320.99 501.48 283.99 488.48 272.99L484.48 261.99C484.48 261.99 490.48 229.99 470.48 214.99C450.48 199.99 427.48 217.99 427.48 217.99Z" fill="#DB8B8B"/>
<path id="Vector_88" opacity="0.1" d="M440.48 596.99L414.48 610.99L406.48 604.99V600.99C415.464 600.352 424.193 597.718 432.03 593.28C434.43 591.92 436.69 590.58 438.5 589.4C439.55 594.03 440.48 596.99 440.48 596.99Z" fill="black"/>
<path id="Vector_89" d="M470.48 173.99L484.48 228.99C484.48 228.99 441.48 235.99 432.48 228.99C423.48 221.99 432.48 207 432.48 207C432.48 207 434 166 444 160C454 154 470.48 173.99 470.48 173.99Z" fill="white"/>
<path id="Vector_90" opacity="0.1" d="M541.85 148.49C539.049 152.356 535.487 155.609 531.383 158.047C527.278 160.485 522.718 162.058 517.983 162.669C513.248 163.28 508.439 162.915 503.85 161.598C499.261 160.281 494.99 158.039 491.3 155.01C490.062 151.75 489.128 148.382 488.51 144.95L536.51 136.95C536.51 136.95 542.26 135.34 541.85 148.49Z" fill="black"/>
<path id="Vector_91" d="M544.5 125.25C544.5 134.533 544.793 145.175 538.229 151.739C531.665 158.303 522.763 161.99 513.48 161.99C504.197 161.99 495.295 158.303 488.731 151.739C482.168 145.175 478.48 136.273 478.48 126.99C478.48 126.41 478.48 125.83 478.48 125.25C478.711 115.967 482.62 107.157 489.346 100.756C496.073 94.3555 504.197 100.525 513.48 100.756C522.763 100.987 531.828 103.773 538.229 110.5C544.629 117.227 544.731 115.967 544.5 125.25Z" fill="#DB8B8B"/>
<path id="Vector_92" d="M482.98 630.49H422.98V649.49H482.98V630.49Z" fill="#6C63FF"/>
<path id="Vector_93" opacity="0.1" d="M482.98 630.49H422.98V649.49H482.98V630.49Z" fill="#535461"/>
<path id="Vector_94" d="M431.99 595.23C437.36 592.23 442.07 589.23 442.48 587.99C442.48 587.99 456.03 602.29 468.1 606.73C472.159 608.229 476.044 610.16 479.69 612.49C484.47 615.49 491.29 619.02 497.48 619.02C497.48 619.02 511.48 631.02 484.48 633.02C457.48 635.02 394.48 628.02 394.48 628.02L398.48 603.02C410.167 603.705 421.804 601 431.99 595.23Z" fill="#ABB1D1"/>
<path id="Vector_95" d="M522.017 85C522.017 85 508.506 120.804 475.404 135.666L470 103.915L522.017 85Z" fill="#2F2E41"/>
</g>
</g>
<defs>
<linearGradient id="paint0_linear" x1="926" y1="132" x2="122" y2="647" gradientUnits="userSpaceOnUse">
<stop stop-color="#4FFFF4"/>
<stop offset="0.6603" stop-color="#E963FF"/>
</linearGradient>
<clipPath id="clip0">
<rect width="1057.7" height="784.98" fill="white"/>
</clipPath>
</defs>
</svg>
